<svg width="1419" height="192" viewBox="0 0 1419 192" fill="none" xmlns="http://www.w3.org/2000/svg">
<path d="M95.9999 165.744C57.5433 165.744 26.2564 134.457 26.2564 96.0001C26.2564 57.5429 57.5433 26.2562 95.9999 26.2562C134.457 26.2562 165.744 57.5429 165.744 96.0001C165.744 134.457 134.457 165.744 95.9999 165.744ZM188.209 96.2523L188.207 95.7494C188.209 94.7341 189.024 93.7458 190.022 93.5523L192 93.1716C191.813 86.623 190.969 80.1791 189.484 73.8843L187.45 74.0302C186.438 74.1032 185.393 73.3592 185.131 72.3788L184.999 71.8934C184.738 70.9114 185.271 69.7454 186.184 69.3012L188.018 68.4113C187.024 65.0957 185.853 61.8262 184.493 58.6122C183.31 55.8169 182.003 53.0931 180.575 50.4423L178.649 51.1101C177.689 51.4417 176.488 50.9943 175.981 50.1139L175.728 49.6792C175.221 48.7988 175.432 47.536 176.2 46.8697L177.737 45.5388C174.332 40.0308 170.373 34.8767 165.882 30.1191L164.214 31.2486C163.374 31.8181 162.097 31.696 161.38 30.9773L161.023 30.6236C160.304 29.9034 160.182 28.6279 160.751 27.7855L161.882 26.1182C157.125 21.6272 151.971 17.6676 146.461 14.2632L145.13 15.8004C144.466 16.5682 143.201 16.7792 142.322 16.2715L141.886 16.0225C141.007 15.5133 140.558 14.3124 140.891 13.351L141.558 11.4251C138.905 9.99739 136.181 8.68863 133.389 7.50677C130.174 6.14724 126.904 4.97648 123.59 3.98182L122.699 5.81727C122.256 6.73103 121.089 7.26247 120.108 6.99913L119.623 6.87062C118.641 6.60728 117.897 5.56344 117.968 4.54974L118.116 2.51599C111.823 1.03114 105.379 0.187186 98.8284 -7.71274e-06L98.4477 1.97822C98.2558 2.97605 97.2674 3.79303 96.2506 3.79303H95.7493C94.734 3.79303 93.7441 2.97605 93.5521 1.97822L93.1714 -7.71274e-06C86.6217 0.187186 80.1781 1.03114 73.8845 2.51599L74.0299 4.54974C74.1027 5.56185 73.3592 6.60729 72.3779 6.86904L71.8927 6.99913C70.9108 7.26247 69.7449 6.72943 69.3011 5.81567L68.4106 3.98182C65.0959 4.97648 61.8263 6.14724 58.6122 7.50677C55.8174 8.68863 53.0939 9.99739 50.4429 11.4267L51.1092 13.351C51.4419 14.3108 50.9939 15.5133 50.1141 16.0209L49.6791 16.2715C48.7988 16.7808 47.5346 16.5666 46.8691 15.7988L45.5389 14.2632C40.0302 17.6676 34.8757 21.6272 30.1185 26.1182L31.2477 27.7855C31.8176 28.6279 31.6952 29.9033 30.9775 30.622L30.6225 30.9773C29.9034 31.696 28.6271 31.8181 27.786 31.2486L26.1184 30.1191C21.6277 34.8751 17.6679 40.0308 14.2632 45.5388L15.7991 46.8697C16.5669 47.5344 16.7794 48.7988 16.2716 49.6792L16.0207 50.1139C15.5123 50.9943 14.3113 51.4417 13.3512 51.1086L11.4259 50.4423C9.99756 53.0931 8.68911 55.8169 7.50709 58.6122C6.14788 61.8262 4.97665 65.0957 3.98231 68.4113L5.81617 69.3012C6.72961 69.7454 7.26216 70.9114 6.99961 71.8918L6.86968 72.3772C6.60634 73.3592 5.56219 74.1032 4.54865 74.0302L2.51601 73.8843C1.03099 80.1775 0.187987 86.6214 0 93.1716L1.97886 93.5523C2.97606 93.7442 3.79258 94.7341 3.79258 95.7494L3.79289 96.2507C3.79258 97.2676 2.97638 98.2559 1.97854 98.4479L0 98.8286C0.187987 105.379 1.03099 111.821 2.51601 118.116L4.54912 117.97C5.56171 117.897 6.60635 118.642 6.86921 119.622L6.99961 120.108C7.26248 121.09 6.72961 122.254 5.81585 122.699L3.98231 123.589C4.97665 126.904 6.14788 130.174 7.50709 133.389C8.68911 136.182 9.99756 138.907 11.4259 141.558L13.3515 140.891C14.3109 140.558 15.5123 141.007 16.0204 141.886L16.2716 142.322C16.7797 143.201 16.5669 144.466 15.7991 145.13L14.2632 146.46C17.6677 151.97 21.6277 157.124 26.1179 161.882L27.7862 160.752C28.6268 160.184 29.9034 160.305 30.6217 161.023L30.9775 161.378C31.6958 162.096 31.8173 163.374 31.248 164.214L30.1185 165.882C34.8757 170.372 40.0299 174.333 45.5389 177.736L46.8696 176.2C47.5343 175.434 48.7988 175.22 49.6783 175.728L50.1137 175.979C50.9939 176.488 51.4415 177.69 51.1092 178.648L50.4421 180.575C53.0936 182.002 55.8171 183.311 58.6122 184.494C61.8263 185.853 65.0959 187.024 68.4106 188.018L69.3011 186.184C69.7446 185.271 70.9108 184.738 71.892 185.001L72.3774 185.13C73.3589 185.395 74.1026 186.438 74.0299 187.451L73.884 189.484C80.1778 190.969 86.6214 191.811 93.1714 192L93.5521 190.021C93.7441 189.024 94.734 188.208 95.7493 188.208H96.2506C97.2659 188.208 98.2558 189.024 98.4477 190.021L98.8284 192C105.379 191.813 111.821 190.969 118.116 189.484L117.97 187.451C117.897 186.438 118.641 185.395 119.623 185.131L120.107 185C121.089 184.738 122.255 185.271 122.699 186.184L123.589 188.019C126.904 187.024 130.174 185.853 133.389 184.494C136.181 183.312 138.905 182.002 141.558 180.575L140.891 178.648C140.558 177.69 141.007 176.488 141.886 175.98L142.322 175.728C143.201 175.22 144.466 175.434 145.13 176.202L146.46 177.738C151.969 174.333 157.125 170.372 161.882 165.882L160.751 164.214C160.182 163.374 160.304 162.096 161.023 161.379L161.378 161.023C162.097 160.305 163.374 160.184 164.214 160.752L165.882 161.882C170.373 157.124 174.331 151.97 177.737 146.46L176.2 145.13C175.432 144.466 175.221 143.201 175.728 142.322L175.979 141.886C176.488 141.007 177.688 140.558 178.649 140.891L180.575 141.558C182.003 138.907 183.31 136.182 184.493 133.389C185.853 130.174 187.024 126.904 188.018 123.591L186.184 122.699C185.271 122.256 184.738 121.089 184.999 120.108L185.129 119.622C185.393 118.642 186.438 117.899 187.45 117.97L189.484 118.116C190.969 111.823 191.813 105.379 192 98.8286L190.022 98.4479C189.024 98.2559 188.209 97.266 188.209 96.2523" fill="white"/>
<path d="M130.542 109.878C125.906 108.251 122.011 105.921 119.139 103.864L119.105 87.9438C121.971 85.8968 125.845 83.5851 130.452 81.9685C133.347 80.9513 142.989 80.0501 149.851 79.5159C151.449 84.7324 152.312 90.2679 152.312 96C152.312 101.676 151.465 107.156 149.898 112.328C143.039 111.792 133.429 110.892 130.542 109.878V109.878ZM141.852 128.683L134.94 118.435L147.272 119.297C145.764 122.609 143.946 125.749 141.852 128.683V128.683ZM108.763 150.926C105.797 144.717 101.771 135.944 101.204 132.934C100.302 128.135 100.365 123.617 100.706 120.11L114.533 112.086C117.73 113.545 121.648 115.74 125.331 118.902C127.654 120.898 133.24 128.776 137.136 134.45C129.634 142.487 119.82 148.339 108.763 150.926V150.926ZM95.9056 152.406C94.1049 152.406 92.3242 152.318 90.5653 152.152L95.9939 141.024L101.415 152.137C99.6016 152.313 97.7637 152.406 95.9056 152.406V152.406ZM54.7868 134.569C58.6804 128.899 64.2499 121.048 66.5687 119.057C70.2355 115.906 74.1364 113.717 77.3273 112.257L91.2992 120.282C91.6244 123.766 91.6723 128.213 90.7836 132.934C90.2169 135.95 86.1745 144.754 83.2065 150.965C72.1388 148.408 62.3092 142.583 54.7868 134.569ZM44.6108 119.452L56.9577 118.589L50.0576 128.82C47.9564 125.893 46.1287 122.758 44.6108 119.452V119.452ZM39.499 96C39.499 90.3252 40.3453 84.8439 41.9118 79.6738C48.7718 80.208 58.3809 81.1076 61.2695 82.1218C65.8089 83.7151 69.6382 85.9835 72.4934 88.0088L72.5289 104.183C69.6801 106.199 65.8686 108.449 61.3582 110.032C58.4639 111.049 48.8217 111.95 41.9587 112.484C40.3611 107.268 39.499 101.734 39.499 96V96ZM49.9574 63.3167L56.8689 73.5654L44.5384 72.703C46.0465 69.3926 47.8648 66.2509 49.9574 63.3167V63.3167ZM83.0467 41.0741C86.0131 47.2831 90.0404 56.0563 90.6071 59.0648C91.5005 63.8168 91.4463 68.2901 91.1149 71.7833L77.1801 79.8705C74.0001 78.4104 70.1248 76.2287 66.4795 73.0978C64.1564 71.102 58.5692 63.2253 54.675 57.5505C62.1757 49.5128 71.9899 43.6614 83.0467 41.0741V41.0741ZM95.9056 39.5938C97.7064 39.5938 99.4871 39.6821 101.244 39.8478L95.8158 50.976L90.3949 39.8633C92.2081 39.6867 94.046 39.5938 95.9056 39.5938V39.5938ZM107.932 95.9985C107.932 93.6883 109.804 91.8163 112.114 91.8163C114.424 91.8163 116.296 93.6883 116.296 95.9985C116.296 98.3087 114.424 100.181 112.114 100.181C109.804 100.181 107.932 98.3087 107.932 95.9985ZM101.964 106.339C103.965 105.184 106.521 105.868 107.676 107.868C108.832 109.869 108.146 112.427 106.147 113.58C104.146 114.736 101.588 114.051 100.433 112.051C99.278 110.05 99.964 107.494 101.964 106.339ZM100.432 79.9479C101.587 77.9474 104.143 77.263 106.144 78.4166C108.144 79.5717 108.83 82.1296 107.675 84.1301C106.52 86.1306 103.962 86.815 101.961 85.6599C99.9624 84.5064 99.2765 81.9484 100.432 79.9479ZM90.6876 102.2L87.9722 97.4973C87.4971 96.6736 87.4971 95.3265 87.9722 94.5027L90.6876 89.8018C91.1629 88.9781 92.3289 88.3046 93.2796 88.3046H98.7082C99.6589 88.3046 100.826 88.9781 101.3 89.8018L104.016 94.5027C104.491 95.3265 104.491 96.6736 104.016 97.4973L101.3 102.2C100.826 103.022 99.6589 103.696 98.7082 103.696H93.2796C92.3289 103.696 91.1629 103.022 90.6876 102.2ZM84.3132 107.87C85.468 105.869 88.0259 105.185 90.0264 106.34C92.0269 107.495 92.7113 110.052 91.5562 112.052C90.4011 114.053 87.8446 114.737 85.8436 113.582C83.8437 112.428 83.159 109.87 84.3132 107.87V107.87ZM85.8419 78.4181C87.8421 77.263 90.3996 77.9489 91.5547 79.9495C92.7098 81.95 92.0238 84.5064 90.0233 85.6615C88.0234 86.8165 85.4658 86.1322 84.311 84.1316C83.1561 82.1311 83.842 79.5732 85.8419 78.4181V78.4181ZM84.0558 96.0016C84.0558 98.3102 82.1835 100.182 79.8736 100.182C77.5644 100.182 75.6918 98.3102 75.6918 96.0016C75.6918 93.6914 77.5644 91.8194 79.8736 91.8194C82.1835 91.8194 84.0558 93.6914 84.0558 96.0016ZM137.023 57.4312C133.13 63.1014 127.561 70.9518 125.241 72.943C121.536 76.1265 117.592 78.3298 114.383 79.79L100.521 71.8266C100.187 68.3273 100.13 63.8369 101.026 59.0648C101.594 56.0501 105.636 47.246 108.604 41.0354C119.672 43.5918 129.501 49.4168 137.023 57.4312ZM147.201 72.5482L134.852 73.4122L141.753 63.1804C143.855 66.1069 145.682 69.2424 147.201 72.5482ZM142.514 49.392C130.063 36.943 113.511 30.0867 95.9056 30.0867C78.2992 30.0867 61.7471 36.943 49.2975 49.392C36.8481 61.8426 29.9922 78.3933 29.9922 96C29.9922 113.607 36.8481 130.159 49.2975 142.608C61.7471 155.057 78.2992 161.913 95.9056 161.913C113.511 161.913 130.063 155.057 142.514 142.608C154.963 130.159 161.819 113.607 161.819 96C161.819 78.3933 154.963 61.8426 142.514 49.392Z" fill="white"/>
<path d="M246.896 133L278.384 84.36H306.8L275.184 133H246.896ZM235.632 79.88V57.608H309.872V79.88H235.632ZM321.132 133V110.728H372.204V106.12H321.132V84.36H395.372V88.456C395.372 89.3947 394.86 90.5467 393.836 91.912C392.897 93.192 392.087 94.3013 391.404 95.24C392.087 96.264 392.897 97.4587 393.836 98.824C394.86 100.104 395.372 101.213 395.372 102.152V116.36C395.372 118.408 394.988 120.456 394.22 122.504C393.452 124.467 392.428 126.216 391.148 127.752C389.868 129.288 388.375 130.568 386.668 131.592C385.047 132.531 383.297 133 381.42 133H321.132ZM395.372 74.248V79.88H321.132V57.608H381.42C383.297 57.608 385.047 58.12 386.668 59.144C388.375 60.0827 389.868 61.32 391.148 62.856C392.428 64.392 393.452 66.184 394.22 68.232C394.988 70.1947 395.372 72.2 395.372 74.248ZM480.104 133H420.584C418.707 133 416.915 132.531 415.208 131.592C413.587 130.568 412.136 129.288 410.856 127.752C409.576 126.216 408.552 124.467 407.784 122.504C407.016 120.456 406.632 118.408 406.632 116.36V84.36H429.8V110.984H480.104V133ZM480.104 79.88H406.632V74.504C406.632 72.456 407.016 70.4507 407.784 68.488C408.552 66.44 409.576 64.6053 410.856 62.984C412.136 61.3627 413.587 60.0827 415.208 59.144C416.915 58.12 418.707 57.608 420.584 57.608H480.104V79.88ZM552.054 133C553.931 133 555.681 132.531 557.302 131.592C559.009 130.568 560.502 129.288 561.782 127.752C563.062 126.216 564.086 124.467 564.854 122.504C565.622 120.456 566.006 118.408 566.006 116.36V74.504C566.006 72.456 565.622 70.4507 564.854 68.488C564.086 66.44 563.062 64.6053 561.782 62.984C560.502 61.3627 559.009 60.0827 557.302 59.144C555.681 58.12 553.931 57.608 552.054 57.608H505.334C503.457 57.608 501.665 58.12 499.958 59.144C498.337 60.0827 496.886 61.3627 495.606 62.984C494.326 64.6053 493.302 66.44 492.534 68.488C491.766 70.4507 491.382 72.456 491.382 74.504V79.88H542.838V110.984H514.55V84.36H491.382V116.36C491.382 118.408 491.766 120.456 492.534 122.504C493.302 124.467 494.326 126.216 495.606 127.752C496.886 129.288 498.337 130.568 499.958 131.592C501.665 132.531 503.457 133 505.334 133H552.054ZM628.329 133V79.88H577.257V57.608H637.545C639.422 57.608 641.172 58.12 642.793 59.144C644.5 60.0827 645.993 61.32 647.273 62.856C648.553 64.392 649.577 66.184 650.345 68.232C651.113 70.1947 651.497 72.2 651.497 74.248V133H628.329ZM577.257 133V84.36H600.425V133H577.257ZM735.461 84.36V106.12H685.925V133H662.757V84.36H735.461ZM735.461 79.88H662.757V57.608H735.461V79.88ZM746.757 57.608V133H769.925V57.608H746.757ZM855.372 133H795.084C793.207 133 791.415 132.531 789.708 131.592C788.087 130.568 786.636 129.288 785.356 127.752C784.076 126.216 783.052 124.467 782.284 122.504C781.516 120.456 781.132 118.408 781.132 116.36V84.36H804.3V110.728H832.204V90.504H855.372V133ZM855.372 79.88H781.132V74.504C781.132 72.456 781.516 70.4507 782.284 68.488C783.052 66.44 784.076 64.6053 785.356 62.984C786.636 61.3627 788.087 60.0827 789.708 59.144C791.415 58.12 793.207 57.608 795.084 57.608H855.372V79.88ZM917.704 57.608V110.728H866.632V116.104C866.632 118.152 867.016 120.2 867.784 122.248C868.552 124.211 869.576 126.003 870.856 127.624C872.136 129.245 873.587 130.568 875.208 131.592C876.915 132.531 878.707 133 880.584 133H926.92C928.797 133 930.547 132.531 932.168 131.592C933.875 130.568 935.368 129.288 936.648 127.752C937.928 126.216 938.952 124.467 939.72 122.504C940.488 120.456 940.872 118.408 940.872 116.36V57.608H917.704ZM866.632 57.608V106.248H889.8V57.608H866.632ZM1003.33 133C1002.39 129.16 1001.24 125.32 999.876 121.48C998.511 117.64 997.103 114.141 995.652 110.984C994.201 107.741 991.001 106.12 986.052 106.12H975.3V133H952.132V84.36H1003.2V79.88H952.132V57.608H1012.42C1014.3 57.608 1016.05 58.12 1017.67 59.144C1019.37 60.0827 1020.87 61.32 1022.15 62.856C1023.43 64.392 1024.45 66.184 1025.22 68.232C1025.99 70.1947 1026.37 72.2 1026.37 74.248V89.48C1026.37 90.504 1026.2 91.784 1025.86 93.32C1025.52 94.7707 1025.01 96.2213 1024.32 97.672C1023.73 99.0373 1022.96 100.275 1022.02 101.384C1021.08 102.408 1020.06 103.005 1018.95 103.176C1021.17 107.357 1022.96 111.965 1024.32 117C1025.69 122.035 1026.71 127.368 1027.4 133H1003.33ZM1037.63 133V84.36H1088.7V79.88H1037.63V74.504C1037.63 72.456 1038.02 70.4507 1038.78 68.488C1039.55 66.44 1040.58 64.6053 1041.86 62.984C1043.14 61.3627 1044.59 60.0827 1046.21 59.144C1047.91 58.12 1049.71 57.608 1051.58 57.608H1097.92C1099.8 57.608 1101.55 58.12 1103.17 59.144C1104.87 60.0827 1106.37 61.32 1107.65 62.856C1108.93 64.392 1109.95 66.184 1110.72 68.232C1111.49 70.1947 1111.87 72.2 1111.87 74.248V133H1088.7V106.12H1060.8V133H1037.63ZM1171.64 79.88H1197.24V57.608H1148.48V133H1171.64V79.88ZM1144 79.88V57.608H1123.13V79.88H1144ZM1269.18 133C1271.06 133 1272.81 132.531 1274.43 131.592C1276.13 130.568 1277.63 129.288 1278.91 127.752C1280.19 126.216 1281.21 124.467 1281.98 122.504C1282.75 120.456 1283.13 118.408 1283.13 116.36V74.504C1283.13 72.456 1282.75 70.4507 1281.98 68.488C1281.21 66.44 1280.19 64.6053 1278.91 62.984C1277.63 61.3627 1276.13 60.0827 1274.43 59.144C1272.81 58.12 1271.06 57.608 1269.18 57.608H1222.46C1220.58 57.608 1218.79 58.12 1217.08 59.144C1215.46 60.0827 1214.01 61.3627 1212.73 62.984C1211.45 64.6053 1210.43 66.44 1209.66 68.488C1208.89 70.4507 1208.51 72.456 1208.51 74.504V79.88H1259.96V110.984H1231.68V84.36H1208.51V116.36C1208.51 118.408 1208.89 120.456 1209.66 122.504C1210.43 124.467 1211.45 126.216 1212.73 127.752C1214.01 129.288 1215.46 130.568 1217.08 131.592C1218.79 132.531 1220.58 133 1222.46 133H1269.18ZM1345.58 133C1344.64 129.16 1343.49 125.32 1342.13 121.48C1340.76 117.64 1339.35 114.141 1337.9 110.984C1336.45 107.741 1333.25 106.12 1328.3 106.12H1317.55V133H1294.38V84.36H1345.45V79.88H1294.38V57.608H1354.67C1356.55 57.608 1358.3 58.12 1359.92 59.144C1361.62 60.0827 1363.12 61.32 1364.4 62.856C1365.68 64.392 1366.7 66.184 1367.47 68.232C1368.24 70.1947 1368.62 72.2 1368.62 74.248V89.48C1368.62 90.504 1368.45 91.784 1368.11 93.32C1367.77 94.7707 1367.26 96.2213 1366.57 97.672C1365.98 99.0373 1365.21 100.275 1364.27 101.384C1363.33 102.408 1362.31 103.005 1361.2 103.176C1363.42 107.357 1365.21 111.965 1366.57 117C1367.94 122.035 1368.96 127.368 1369.65 133H1345.58Z" fill="white"/>
</svg>
