<svg width="331" height="70" viewBox="0 0 331 70" fill="none" xmlns="http://www.w3.org/2000/svg">
<path d="M73.819 45H80.007L89.191 34.36H82.975L73.819 45ZM73.819 33.38H90.059L91.095 28.508H74.855L73.819 33.38ZM90.0582 45H103.246C103.657 45 104.068 44.8973 104.478 44.692C104.889 44.468 105.272 44.188 105.626 43.852C105.981 43.516 106.289 43.1333 106.55 42.704C106.812 42.256 106.989 41.808 107.082 41.36L107.726 38.252C107.764 38.0467 107.708 37.804 107.558 37.524C107.409 37.2253 107.288 36.964 107.194 36.74C107.381 36.516 107.614 36.2733 107.894 36.012C108.174 35.732 108.333 35.48 108.37 35.256L108.566 34.36H92.3262L91.3182 39.12H102.49L102.266 40.128H91.0942L90.0582 45ZM109.042 32.148C109.136 31.7 109.145 31.2613 109.07 30.832C108.996 30.384 108.846 29.992 108.622 29.656C108.417 29.32 108.156 29.0493 107.838 28.844C107.521 28.62 107.157 28.508 106.746 28.508H93.5582L92.5222 33.38H108.762L109.042 32.148ZM133.283 45L134.319 40.184H123.315L124.547 34.36H119.479L117.995 41.36C117.901 41.808 117.892 42.256 117.967 42.704C118.041 43.1333 118.181 43.516 118.387 43.852C118.592 44.188 118.853 44.468 119.171 44.692C119.488 44.8973 119.852 45 120.263 45H133.283ZM135.747 33.38L136.783 28.508H123.763C123.352 28.508 122.941 28.62 122.531 28.844C122.12 29.0493 121.737 29.3293 121.383 29.684C121.028 30.0387 120.72 30.44 120.459 30.888C120.197 31.3173 120.02 31.756 119.927 32.204L119.675 33.38H135.747ZM149.022 45H138.802C138.391 45 138.027 44.8973 137.71 44.692C137.392 44.468 137.131 44.188 136.926 43.852C136.72 43.516 136.58 43.1333 136.506 42.704C136.431 42.256 136.44 41.808 136.534 41.36L138.018 34.36H143.086L141.854 40.184H148.042L149.47 33.38H138.214L138.466 32.204C138.559 31.756 138.736 31.3173 138.998 30.888C139.259 30.44 139.567 30.0387 139.922 29.684C140.276 29.3293 140.659 29.0493 141.07 28.844C141.48 28.62 141.891 28.508 142.302 28.508H152.522C152.932 28.508 153.296 28.62 153.614 28.844C153.931 29.0493 154.192 29.3293 154.398 29.684C154.603 30.0387 154.743 30.44 154.818 30.888C154.892 31.3173 154.883 31.756 154.79 32.204L152.858 41.36C152.764 41.808 152.587 42.256 152.326 42.704C152.064 43.1333 151.756 43.516 151.402 43.852C151.047 44.188 150.664 44.468 150.254 44.692C149.843 44.8973 149.432 45 149.022 45ZM165.707 45H170.775L173.519 32.148C173.612 31.7 173.621 31.2613 173.547 30.832C173.472 30.384 173.323 29.992 173.099 29.656C172.893 29.32 172.632 29.0493 172.315 28.844C171.997 28.62 171.633 28.508 171.223 28.508H158.035L156.999 33.38H168.171L165.707 45ZM154.535 45H159.603L161.871 34.36H156.803L154.535 45ZM191.41 34.36H175.506L173.238 45H178.306L179.566 39.12H190.402L191.41 34.36ZM191.606 33.38L192.642 28.508H176.738L175.702 33.38H191.606ZM195.113 28.508H200.181L196.681 45H191.613L195.113 28.508ZM215.372 45L217.36 35.704H212.292L211.34 40.128H205.236L206.468 34.36H201.4L199.916 41.36C199.823 41.808 199.814 42.256 199.888 42.704C199.963 43.1333 200.103 43.516 200.308 43.852C200.514 44.188 200.775 44.468 201.092 44.692C201.41 44.8973 201.774 45 202.184 45H215.372ZM217.836 33.38L218.872 28.508H205.684C205.274 28.508 204.863 28.62 204.452 28.844C204.042 29.0493 203.659 29.3293 203.304 29.684C202.95 30.0387 202.642 30.44 202.38 30.888C202.119 31.3173 201.942 31.756 201.848 32.204L201.596 33.38H217.836ZM232.508 28.508H237.576L234.86 41.36C234.766 41.808 234.589 42.256 234.328 42.704C234.066 43.1333 233.758 43.516 233.404 43.852C233.049 44.188 232.666 44.468 232.256 44.692C231.845 44.8973 231.434 45 231.024 45H220.888C220.477 45 220.113 44.8973 219.796 44.692C219.478 44.468 219.217 44.1787 219.012 43.824C218.806 43.4693 218.666 43.0773 218.592 42.648C218.517 42.2 218.526 41.752 218.62 41.304L218.872 40.128H230.044L232.508 28.508ZM221.336 28.508H226.404L224.136 39.148H219.068L221.336 28.508ZM247.767 45H253.003C253.04 44.5893 253.068 44.188 253.087 43.796C253.105 43.404 253.115 43.0213 253.115 42.648C253.115 41.864 253.068 41.1267 252.975 40.436C252.9 39.7453 252.76 39.092 252.555 38.476C252.816 38.4387 253.068 38.308 253.311 38.084C253.553 37.8413 253.777 37.5707 253.983 37.272C254.188 36.9547 254.356 36.6373 254.487 36.32C254.636 35.984 254.739 35.704 254.795 35.48L255.523 32.148C255.616 31.7 255.625 31.2613 255.551 30.832C255.476 30.384 255.327 29.992 255.103 29.656C254.897 29.32 254.636 29.0493 254.319 28.844C254.001 28.62 253.637 28.508 253.227 28.508H240.039L239.003 33.38H250.175L249.979 34.36H238.807L236.539 45H241.607L242.867 39.12H245.219C246.357 39.12 247.011 39.4747 247.179 40.184C247.347 40.8747 247.477 41.64 247.571 42.48C247.664 43.32 247.729 44.16 247.767 45ZM255.242 45H260.31L261.57 39.12H267.674L266.414 45H271.482L274.226 32.148C274.319 31.7 274.328 31.2613 274.254 30.832C274.179 30.384 274.03 29.992 273.806 29.656C273.6 29.32 273.339 29.0493 273.022 28.844C272.704 28.62 272.34 28.508 271.93 28.508H261.794C261.383 28.508 260.972 28.62 260.562 28.844C260.151 29.0493 259.768 29.3293 259.414 29.684C259.059 30.0387 258.751 30.44 258.49 30.888C258.228 31.3173 258.051 31.756 257.958 32.204L257.706 33.38H268.878L268.682 34.36H257.51L255.242 45ZM287.021 33.38L284.557 45H279.489L282.989 28.508H293.657L292.621 33.38H287.021ZM280.973 33.38H276.409L277.445 28.508H282.009L280.973 33.38ZM305.893 45H295.673C295.262 45 294.898 44.8973 294.581 44.692C294.263 44.468 294.002 44.188 293.797 43.852C293.591 43.516 293.451 43.1333 293.377 42.704C293.302 42.256 293.311 41.808 293.405 41.36L294.889 34.36H299.957L298.725 40.184H304.913L306.341 33.38H295.085L295.337 32.204C295.43 31.756 295.607 31.3173 295.869 30.888C296.13 30.44 296.438 30.0387 296.793 29.684C297.147 29.3293 297.53 29.0493 297.941 28.844C298.351 28.62 298.762 28.508 299.173 28.508H309.393C309.803 28.508 310.167 28.62 310.485 28.844C310.802 29.0493 311.063 29.3293 311.269 29.684C311.474 30.0387 311.614 30.44 311.689 30.888C311.763 31.3173 311.754 31.756 311.661 32.204L309.729 41.36C309.635 41.808 309.458 42.256 309.197 42.704C308.935 43.1333 308.627 43.516 308.273 43.852C307.918 44.188 307.535 44.468 307.125 44.692C306.714 44.8973 306.303 45 305.893 45ZM322.634 45H327.87C327.907 44.5893 327.935 44.188 327.954 43.796C327.972 43.404 327.982 43.0213 327.982 42.648C327.982 41.864 327.935 41.1267 327.842 40.436C327.767 39.7453 327.627 39.092 327.422 38.476C327.683 38.4387 327.935 38.308 328.178 38.084C328.42 37.8413 328.644 37.5707 328.85 37.272C329.055 36.9547 329.223 36.6373 329.354 36.32C329.503 35.984 329.606 35.704 329.662 35.48L330.39 32.148C330.483 31.7 330.492 31.2613 330.418 30.832C330.343 30.384 330.194 29.992 329.97 29.656C329.764 29.32 329.503 29.0493 329.186 28.844C328.868 28.62 328.504 28.508 328.094 28.508H314.906L313.87 33.38H325.042L324.846 34.36H313.674L311.406 45H316.474L317.734 39.12H320.086C321.224 39.12 321.878 39.4747 322.046 40.184C322.214 40.8747 322.344 41.64 322.438 42.48C322.531 43.32 322.596 44.16 322.634 45Z" fill="#DDDDDD"/>
<g clip-path="url(#clip0_22_142)">
<rect width="63" height="70" fill="white"/>
<path d="M0 35V70H31.5H63V35V0H31.5H0V35ZM50.3752 4.40603C50.2267 4.84042 50.0287 5.26241 49.9173 5.3617C49.8059 5.44858 49.6079 5.77128 49.4717 6.08156C49.3356 6.39184 49.1499 6.72695 49.0633 6.83865C48.9642 6.93794 48.7662 7.27305 48.6053 7.58333C48.0483 8.62589 47.6027 9.37057 47.3305 9.70567C47.1819 9.90425 47.0086 10.1773 46.9591 10.3262C46.9096 10.4876 46.7487 10.7855 46.5878 10.9965C46.4269 11.2074 46.2908 11.4184 46.2908 11.4681C46.2908 11.5177 46.068 11.9025 45.7957 12.3121C45.5234 12.734 45.3006 13.1312 45.3006 13.1933C45.3006 13.2553 45.1397 13.516 44.9293 13.7766C44.7312 14.0372 44.558 14.2979 44.558 14.3599C44.558 14.422 44.3723 14.7571 44.1619 15.1046C43.9391 15.4645 43.5925 16.0355 43.3821 16.3954C43.1841 16.7429 42.8251 17.3138 42.6147 17.6489C42.3919 17.9965 42.2063 18.3067 42.2063 18.3564C42.2063 18.406 42.033 18.7163 41.8226 19.0638C41.5998 19.3989 41.3275 19.8333 41.2161 20.0443C41.0923 20.2429 40.7705 20.7766 40.4859 21.2234C40.2136 21.6702 39.8546 22.2784 39.6937 22.5887C39.5328 22.8989 39.2976 23.3209 39.1491 23.5195C39.013 23.7305 38.654 24.3138 38.3694 24.8227C38.0723 25.3316 37.6886 25.9894 37.5153 26.2748C36.946 27.1933 36.3519 28.1986 35.4978 29.7128C35.275 30.1099 35.0151 30.5567 34.9409 30.7057C34.8542 30.8546 34.78 31.4007 34.78 31.9965V33.0266L35.3122 33.5727C35.8196 34.1064 35.9558 34.1684 39.669 35.4468C41.7855 36.1667 43.5802 36.8245 43.6668 36.8865C44.0257 37.1844 43.6668 38.922 42.986 40.1507C42.4538 41.1188 41.835 41.7518 39.1244 44.1596C38.0723 45.1028 36.587 46.4433 35.8444 47.1507C35.0894 47.8582 34.1982 48.6401 33.8517 48.9007C33.5175 49.1613 33.0967 49.5213 32.9234 49.7074C32.5892 50.0798 28.777 53.555 27.6259 54.5355C27.2422 54.8706 26.3635 55.6525 25.6827 56.273C25.002 56.906 23.888 57.9113 23.2073 58.5195C22.5265 59.1401 21.3012 60.2447 20.4843 61.0018C16.6597 64.5018 12.8475 67.9149 12.8104 67.8652C12.798 67.8404 12.8228 67.406 12.8723 66.8723C12.9466 66.0532 13.0208 65.8174 13.4664 65.0975C13.7511 64.6507 13.9862 64.2287 13.9862 64.1791C13.9862 64.1294 14.1472 63.844 14.3328 63.5337C14.766 62.8759 16.0285 60.766 16.4617 60.0213C16.8701 59.3138 17.6623 57.9858 18.1574 57.1791C18.3802 56.8191 18.7267 56.2234 18.9371 55.8511C19.1475 55.4787 19.5065 54.8582 19.7416 54.4858C19.9768 54.1135 20.311 53.5177 20.4967 53.1826C20.6699 52.8351 20.8927 52.4752 20.9794 52.3759C21.066 52.2766 21.2764 51.9539 21.4373 51.6684C21.8086 50.9982 22.3532 50.0922 22.7988 49.4096C22.9845 49.0993 23.1454 48.789 23.1454 48.7145C23.1454 48.6277 23.232 48.4787 23.3434 48.3918C23.4548 48.2926 23.6528 47.9947 23.789 47.7216C23.9128 47.4486 24.1356 47.0514 24.2717 46.8528C24.544 46.4681 25.8436 44.2713 26.3387 43.4025C26.4872 43.117 26.6853 42.8067 26.7843 42.7074C26.8709 42.5957 26.9947 42.3848 27.0318 42.2358C27.0813 42.0745 27.3041 41.6773 27.5145 41.3422C28.678 39.5301 28.6532 39.5922 28.7027 38.5L28.7399 37.4699L28.0839 36.8245C27.4155 36.1791 27.4155 36.1791 23.6157 34.8759C20.5709 33.8333 19.7912 33.523 19.6921 33.2996C19.457 32.8032 19.9892 30.9291 20.6823 29.7872C21.0041 29.2535 22.5884 27.7145 24.8782 25.6915C25.4599 25.1826 26.6358 24.1152 27.4898 23.3333C28.3562 22.5514 30.0519 21.0124 31.2648 19.9202C32.4778 18.828 33.8393 17.5993 34.2849 17.1773C34.7304 16.7677 35.931 15.6755 36.946 14.7695C38.8521 13.0691 39.6937 12.3121 42.5157 9.74291C47.6275 5.10107 48.6672 4.1578 49.5707 3.36347L50.5609 2.49468L50.598 3.05319C50.6228 3.3883 50.5361 3.93439 50.3752 4.40603ZM30.5593 7.44681C31.1658 8.0922 31.6609 8.11702 32.1931 7.5461C32.3912 7.32269 32.5521 7.09929 32.5521 7.04964C32.5521 6.91312 34.2972 6.93794 35.1513 7.08688C35.5226 7.14894 36.1662 7.23582 36.5747 7.27305C37.342 7.35993 37.6762 7.50887 37.5525 7.71986C37.4782 7.84397 37.7629 8.32801 38.1342 8.70036C38.4931 9.06028 39.0749 9.01064 39.4585 8.56383C39.8051 8.16667 40.0155 8.11702 40.5477 8.32801L40.8943 8.45213L40.2878 8.9734C39.9413 9.25887 39.0006 10.1152 38.1837 10.8599C37.3668 11.617 36.2033 12.672 35.5845 13.2057L34.4705 14.1738L33.7279 14.0869C31.8837 13.8883 27.9972 14.0621 27.1927 14.3848C26.9947 14.4592 26.6853 14.5213 26.4872 14.5213C26.2892 14.5213 26.0912 14.5709 26.054 14.6454C26.0169 14.7074 25.856 14.7695 25.7075 14.7695C25.5589 14.7695 25.2743 14.8564 25.0762 14.9557C24.8906 15.055 24.6183 15.1418 24.4945 15.1418C24.3583 15.1418 24.1603 15.1915 24.0365 15.2535C23.7395 15.3901 23.0587 15.7128 22.4028 16.0106C21.2764 16.5195 20.0758 17.2518 18.6277 18.3191C17.6251 19.0638 15.2487 21.4716 14.5308 22.4645C13.553 23.805 13.4045 24.016 13.3303 24.2021C13.2807 24.3014 13.0703 24.6613 12.8723 25.0089C12.6619 25.344 12.4639 25.7163 12.4143 25.8156C12.3772 25.9149 12.2163 26.2872 12.0554 26.6472C11.8945 26.9947 11.7583 27.3794 11.7583 27.4787C11.7583 27.578 11.7088 27.6897 11.647 27.727C11.5851 27.7766 11.4365 28.1241 11.3251 28.5213C11.2138 28.906 11.0652 29.3901 10.991 29.6011C10.9167 29.7996 10.8424 30.172 10.8053 30.4078C10.7806 30.6436 10.7063 30.9539 10.6444 31.0904C10.4711 31.4876 10.2112 33.9699 10.2112 35.1862C10.2112 36.4645 10.5083 39.0957 10.6568 39.2695C10.7187 39.344 10.7682 39.5922 10.7682 39.828C10.7682 40.0762 10.8548 40.4362 10.9538 40.6348C11.0528 40.8209 11.1395 41.1188 11.1395 41.2801C11.1395 41.4291 11.2014 41.6028 11.2633 41.6401C11.3375 41.6773 11.387 41.8759 11.387 42.0621C11.387 42.2606 11.4737 42.484 11.5727 42.5709C11.6717 42.6578 11.7583 42.8067 11.7583 42.906C11.7583 43.2287 12.9466 45.7358 13.2065 45.9344C13.2931 46.0213 13.3674 46.1206 13.3674 46.1826C13.3674 46.2447 13.6397 46.6791 13.9862 47.1631C14.3204 47.6472 14.6051 48.0816 14.6051 48.1312C14.6051 48.2801 18.3925 52.0035 18.5411 52.0035C18.7267 52.0035 18.6029 52.3262 18.1697 52.9592C17.9841 53.2447 17.8232 53.5177 17.8232 53.5798C17.8232 53.6294 17.6499 53.9025 17.4519 54.1631C17.2415 54.4362 17.0805 54.7216 17.0805 54.7961C17.0805 54.8706 16.8825 55.2181 16.6473 55.5532C16.4122 55.8883 16.2141 56.211 16.2141 56.273C16.2141 56.3351 16.0904 56.5585 15.9295 56.7695C15.7809 56.9805 15.5086 57.4149 15.3477 57.7376C15.1745 58.0727 15.0012 58.3333 14.964 58.3333C14.9269 58.3333 14.7413 58.172 14.5432 57.961C14.3452 57.7624 14.1224 57.5887 14.0481 57.5887C13.9739 57.5887 13.5407 57.2411 13.0703 56.8067L12.2287 56.0372L12.4391 55.6401C12.6866 55.1436 12.6 54.8457 12.1173 54.4238C11.7088 54.0887 11.2756 54.0266 10.8796 54.2748C10.6568 54.4113 10.5701 54.3617 10.0503 53.7908C9.30766 52.9965 8.37937 51.7926 7.89666 51.0106L7.52534 50.4025L7.78526 50.0426C8.36699 49.2234 7.89666 48.3546 6.85697 48.3422C6.31238 48.3298 6.31238 48.3174 5.95344 47.5851C5.7554 47.1879 5.49548 46.6294 5.38409 46.3564C5.27269 46.0833 5.12417 45.7606 5.06228 45.6489C5.00039 45.5248 4.95088 45.3635 4.95088 45.2766C4.95088 45.1897 4.87662 44.9787 4.78998 44.805C4.69096 44.6188 4.59194 44.2837 4.55481 44.0355C4.49293 43.6631 4.53006 43.5514 4.83949 43.2784C5.37171 42.8191 5.33458 42.2234 4.76523 41.7145C4.51768 41.5035 4.19587 41.3298 4.03497 41.3298C3.77505 41.3298 3.73792 41.2429 3.60177 40.4238C3.51513 39.9397 3.39136 38.8351 3.31709 37.9787L3.19332 36.4397L3.478 36.2411C4.60432 35.5213 4.60432 34.8511 3.478 34.1312L3.19332 33.9326L3.31709 32.3936C3.39136 31.5372 3.51513 30.4326 3.60177 29.9362C3.73792 29.1294 3.77505 29.0426 4.03497 29.0426C4.19587 29.0426 4.51768 28.8688 4.76523 28.6578C5.33458 28.1489 5.37171 27.5532 4.83949 27.094C4.53006 26.8209 4.48055 26.7092 4.54244 26.3245C4.56719 26.0762 4.67859 25.7039 4.76523 25.5053C4.85187 25.2943 4.97564 24.9965 5.0499 24.8227C5.19843 24.4255 6.1886 22.2535 6.28762 22.1046C6.3 22.0674 6.53517 22.055 6.79509 22.0674C7.81002 22.1294 8.45363 20.9876 7.78526 20.2801C7.56248 20.0443 7.5501 19.9574 7.67387 19.7092C7.94617 19.1879 9.33242 17.3511 9.98841 16.6436C10.5701 16.023 10.6568 15.961 10.8796 16.0975C11.3499 16.3954 11.8202 16.2961 12.2411 15.8245C12.6743 15.3156 12.699 15.2163 12.4391 14.7199C12.2534 14.3599 12.2534 14.3351 12.6495 13.9255C12.8723 13.6897 13.3055 13.3298 13.6149 13.1188C13.9244 12.9078 14.4071 12.5355 14.6794 12.2996C14.964 12.0514 15.4468 11.7163 15.7686 11.5426L16.3255 11.2447L16.6226 11.5177C17.291 12.1507 18.2688 11.617 18.343 10.5621C18.3802 9.97872 18.5411 9.85461 20.0511 9.20922C20.4224 9.04787 20.8927 8.84929 21.0784 8.75C21.2764 8.65071 21.5363 8.56383 21.6601 8.56383C21.7839 8.56383 21.92 8.51418 21.9572 8.45213C22.0067 8.39007 22.2542 8.30319 22.5265 8.25354C22.9845 8.17908 23.0587 8.2039 23.3929 8.56383C23.7271 8.92376 23.8261 8.96099 24.2222 8.89894C24.7297 8.81206 25.2371 8.30319 25.2495 7.86879C25.2495 7.48404 25.4599 7.37234 26.3016 7.27305C26.71 7.2234 27.3289 7.14894 27.6631 7.08688C28.0096 7.02482 28.6904 6.97518 29.1855 6.96276C30.089 6.95036 30.089 6.95036 30.5593 7.44681ZM49.1747 13.0816C49.6697 13.4415 50.202 13.8883 50.3629 14.0745C50.6475 14.3723 50.6475 14.4096 50.4619 14.6206C50.1648 14.9433 50.202 15.2535 50.5609 15.7996C50.8332 16.1968 50.9446 16.2589 51.3654 16.2589C51.6253 16.2589 51.8853 16.1968 51.9224 16.1348C51.9595 16.0603 52.0709 16.0106 52.1699 16.0106C52.467 16.0106 54.5092 18.617 55.1528 19.8085C55.2766 20.0319 55.2519 20.1188 55.0662 20.305C54.9424 20.4415 54.8063 20.6897 54.7692 20.8759C54.6949 21.1613 54.7568 21.2979 55.1281 21.6702C55.4994 22.0426 55.6356 22.1046 56.0316 22.0674C56.502 22.0301 56.502 22.0301 56.9228 22.8989C57.1456 23.3706 57.4179 23.9663 57.5293 24.2021C57.6283 24.4379 57.7644 24.7358 57.8139 24.8475C57.8758 24.9716 57.9253 25.1702 57.9253 25.2943C57.9253 25.406 57.9996 25.617 58.0862 25.7535C58.1853 25.8901 58.2967 26.1755 58.3338 26.3989C58.3957 26.7465 58.3585 26.8333 58.0491 27.0567C57.7397 27.2801 57.6778 27.4043 57.6778 27.8511C57.6778 28.4716 57.9872 28.8316 58.668 29.0053C59.0888 29.117 59.1012 29.1418 59.2249 29.9858C59.2992 30.4574 59.3982 30.9291 59.4354 31.0284C59.4849 31.1277 59.5344 31.8475 59.5715 32.6046L59.6086 34.0071L59.1383 34.3174C58.3462 34.8387 58.3709 35.5461 59.1878 36.1046L59.6086 36.4025L59.5591 37.7801C59.5344 38.5372 59.4849 39.2447 59.4354 39.344C59.3982 39.4433 59.2992 39.9149 59.2249 40.3865C59.1136 41.1684 59.0764 41.2553 58.767 41.3422C58.5813 41.3918 58.2595 41.5532 58.0491 41.7021C57.7273 41.9255 57.6778 42.0496 57.6778 42.5089C57.6778 42.9681 57.7397 43.0922 58.0491 43.3156C58.3585 43.539 58.3957 43.6259 58.3338 43.9734C58.2967 44.1968 58.1853 44.4823 58.0862 44.6188C57.9996 44.7553 57.9253 44.9663 57.9253 45.078C57.9253 45.2021 57.8758 45.4007 57.8139 45.5248C57.7644 45.6365 57.6283 45.9344 57.5293 46.1702C57.4179 46.406 57.1456 46.9894 56.9228 47.4734C56.502 48.3422 56.502 48.3422 56.0316 48.305C55.6356 48.2677 55.4994 48.3298 55.1281 48.7021C54.7568 49.0745 54.6949 49.211 54.7692 49.4965C54.8063 49.6826 54.9424 49.9309 55.0662 50.0674C55.2519 50.2535 55.2766 50.3404 55.1528 50.5638C54.8806 51.0851 53.3582 53.195 52.8136 53.8032C52.3061 54.3617 52.2318 54.4113 51.9967 54.2624C51.8605 54.1879 51.5511 54.1135 51.3035 54.1135C50.957 54.1135 50.8208 54.1879 50.5609 54.5727C50.2143 55.094 50.1896 55.3174 50.4 55.8014C50.5485 56.1117 50.5238 56.1613 50.0658 56.5585C48.8776 57.5762 46.823 59.078 46.5878 59.078C46.5136 59.078 46.3774 58.9911 46.2908 58.8918C46.0185 58.5567 45.3501 58.5319 44.9293 58.8298C44.5951 59.0656 44.558 59.1649 44.558 59.7358C44.5456 60.4557 44.7312 60.2943 42.9489 61.1011C42.5776 61.2748 41.9959 61.5106 41.6493 61.6348C41.3151 61.7465 40.9809 61.8954 40.9191 61.9574C40.8448 62.0071 40.6468 62.0567 40.4611 62.0567C40.2754 62.0567 40.0774 62.1188 40.0279 62.1933C39.9784 62.2801 39.7927 62.1684 39.5328 61.883C39.013 61.3245 38.5426 61.2872 37.998 61.7713C37.6638 62.0691 37.5772 62.2801 37.5153 62.9504C37.5029 63.0248 37.3544 63.0496 34.3715 63.3103L32.6635 63.4716L32.4654 63.1738C31.8094 62.2429 31.2648 62.1684 30.5593 62.9255C30.0147 63.4965 29.7796 63.5213 27.7868 63.2855C27.1804 63.211 26.3635 63.1117 25.9921 63.0621C25.3485 62.9876 25.3114 62.9628 25.2495 62.6028C25.1505 62.0071 24.7544 61.5603 24.2222 61.4734C23.8138 61.4113 23.7147 61.4486 23.3558 61.8333C23.0216 62.1809 22.8978 62.2429 22.675 62.1684C22.5265 62.1064 22.4028 62.0443 22.4028 62.0195C22.4028 61.9823 22.8112 61.6223 23.3063 61.2128C24.3955 60.2943 24.5193 60.1826 26.0664 58.7553C26.7348 58.1348 27.5145 57.4397 27.7745 57.2039C28.0468 56.9681 28.4057 56.6578 28.5666 56.4965C28.8884 56.211 29.5073 56.1241 29.6434 56.3475C29.7424 56.4965 33.1338 56.5213 33.2204 56.3599C33.2576 56.2979 33.765 56.2358 34.3344 56.1986C34.9161 56.1738 35.4483 56.0869 35.5473 56.0124C35.634 55.9379 35.931 55.8511 36.2033 55.8138C36.9336 55.7145 37.9238 55.4663 38.0475 55.3422C38.1218 55.2801 38.2703 55.2305 38.3941 55.2305C38.5179 55.2305 38.7159 55.1809 38.8397 55.1188C38.9511 55.0691 39.2481 54.9326 39.4833 54.8209C42.491 53.4433 43.9267 52.4752 46.1422 50.328C47.6275 48.8883 47.9493 48.4911 49.2242 46.6046C49.7935 45.7606 51.1179 43.2039 51.1179 42.9681C51.1179 42.906 51.2045 42.6826 51.3035 42.4965C51.4026 42.2979 51.4892 42.0372 51.4892 41.9255C51.4892 41.8138 51.5511 41.6773 51.613 41.6401C51.6872 41.6028 51.7367 41.3794 51.7367 41.156C51.7367 40.945 51.7986 40.6968 51.8729 40.6223C52.269 40.2252 52.8012 33.9574 52.4917 33.3245C52.4175 33.1879 52.3432 32.6791 52.3061 32.2074C52.2318 31.0532 52.0338 29.9113 51.8729 29.75C51.7986 29.6755 51.7367 29.4273 51.7367 29.2163C51.7367 28.9929 51.6872 28.7695 51.613 28.7323C51.5511 28.695 51.4892 28.5709 51.4892 28.4592C51.4892 28.3599 51.4026 28.0745 51.2912 27.8262C51.1921 27.5656 51.0312 27.1933 50.9446 26.9947C49.7811 24.3138 48.2587 22.1046 46.0061 19.8954L44.5951 18.4929L44.9788 17.8599C45.1892 17.5124 45.5358 16.9415 45.7585 16.5816C45.9813 16.234 46.2413 15.7624 46.3403 15.5514C46.4393 15.328 46.6621 14.9557 46.823 14.7447C46.9839 14.5213 47.3552 13.9007 47.6523 13.367C47.9493 12.8457 48.2092 12.4113 48.234 12.4113C48.2587 12.4113 48.6796 12.7092 49.1747 13.0816ZM32.4283 15.9858C32.4283 16.172 30.287 17.9344 29.9033 18.0585C29.6187 18.1578 29.532 18.2571 29.5444 18.4557C29.5692 18.6294 29.3959 18.8652 28.9998 19.1879C28.4676 19.6348 28.4305 19.6472 28.2695 19.4238C28.1705 19.2996 28.0963 19.1259 28.0963 19.0514C28.0963 18.977 27.9601 18.7784 27.7992 18.6294C27.5517 18.3936 27.4527 18.3688 27.2546 18.4805C27.1061 18.555 26.8833 18.617 26.7348 18.617C26.5862 18.617 26.2892 18.6915 26.0788 18.7908C25.856 18.8777 25.4847 19.0266 25.2495 19.1135C25.0143 19.2004 24.6554 19.3493 24.445 19.4238C24.247 19.5106 23.987 19.6223 23.888 19.6596C23.789 19.6968 23.591 19.8085 23.4548 19.883C23.331 19.9699 22.8483 20.2677 22.4028 20.5284C20.967 21.4096 18.8134 23.2837 18.8134 23.6684C18.8134 23.7553 18.9743 24.0904 19.1723 24.4131L19.5312 24.984L19.0733 25.5674L18.6277 26.1507L18.3554 25.7535C18.1079 25.3812 17.8356 25.195 17.5756 25.195C17.2786 25.195 15.8428 27.6277 15.8428 28.1365C15.8428 28.4716 16.177 28.6702 16.7092 28.6702C16.9196 28.6702 17.0805 28.7199 17.0558 28.7695C17.0434 28.8191 16.9073 29.1543 16.7835 29.5142C16.536 30.1596 16.3008 30.3209 16.0037 30.023C15.9295 29.9486 15.7191 29.9113 15.521 29.9362C15.0878 29.9858 14.7289 30.6312 14.5804 31.5869C14.5308 31.922 14.4318 32.5426 14.3576 32.9521C14.1719 33.8954 14.2585 38.0532 14.469 38.2642C14.5432 38.3387 14.6051 38.5993 14.6051 38.8351C14.6175 39.0833 14.7413 39.5301 14.8898 39.8404C15.1621 40.3989 15.1621 40.3989 15.88 40.4362L16.5978 40.4734L16.8454 41.0319C17.1301 41.7145 17.1301 41.7021 16.8701 41.7021C16.7464 41.7021 16.4617 41.8138 16.2513 41.9504C15.8057 42.2234 15.7067 42.6702 16.0285 42.9433C16.1275 43.0301 16.2141 43.1418 16.2141 43.2039C16.2141 43.4149 17.3528 45.1649 17.5385 45.2269C17.7861 45.3262 18.1574 45.1028 18.2564 44.8174C18.4297 44.2713 18.6401 44.2837 19.1228 44.8794L19.5807 45.4379L19.1971 45.984C18.9866 46.2819 18.8134 46.6294 18.8134 46.7535C18.8134 46.9645 19.754 47.9078 20.4719 48.4415C20.6947 48.6028 20.6823 48.6401 20.311 49.3475C20.1006 49.7447 19.8407 50.1915 19.7416 50.3156C19.5436 50.5762 19.655 50.6383 17.9965 49.1365C17.1548 48.367 15.1002 45.8723 15.1002 45.6117C15.1002 45.5745 14.9517 45.3138 14.7784 45.0284C14.2462 44.1844 13.4912 42.6702 13.4912 42.4344C13.4912 42.3103 13.4417 42.1738 13.3674 42.1365C13.3055 42.0993 13.2436 41.9752 13.2436 41.8635C13.2436 41.7642 13.1694 41.5035 13.0703 41.2926C12.9713 41.0691 12.8599 40.7216 12.8228 40.5231C12.7733 40.3121 12.6495 39.7908 12.5505 39.344C12.0678 37.3085 12.0678 33.0514 12.5505 31.0284C12.6495 30.5816 12.7733 30.0479 12.8228 29.8493C12.8599 29.6383 12.9713 29.3032 13.0703 29.0798C13.1694 28.8688 13.2436 28.6082 13.2436 28.5089C13.2436 28.3972 13.2931 28.273 13.3674 28.2358C13.4293 28.1986 13.4912 28.0621 13.4912 27.9379C13.4912 27.7021 14.2462 26.1879 14.7784 25.344C14.9517 25.0585 15.1002 24.7979 15.1002 24.773C15.1002 24.6117 16.1894 23.172 16.9939 22.2784C18.0831 21.0496 19.8778 19.4982 20.7937 18.977C21.0289 18.8404 21.5116 18.5674 21.8458 18.3688C22.4523 18.0089 23.2568 17.6117 23.888 17.3511C24.0613 17.2766 24.3707 17.1525 24.5688 17.0656C24.7792 16.9787 25.2743 16.8174 25.6827 16.6933C26.0912 16.5816 26.5367 16.445 26.6729 16.383C26.809 16.3209 27.168 16.2465 27.4774 16.2092C27.7868 16.172 28.3191 16.0975 28.6532 16.0355C29.4454 15.8865 32.4283 15.8493 32.4283 15.9858ZM45.313 21.8067C46.5383 23.0603 47.4914 24.3138 47.9617 25.2571C48.0731 25.4557 48.2216 25.7411 48.3083 25.8777C48.8033 26.6596 49.0138 27.0691 49.0138 27.2305C49.0138 27.3298 49.1128 27.5904 49.2242 27.8262C49.5955 28.5833 49.6326 28.6702 49.6326 28.8936C49.6326 29.0053 49.7069 29.2163 49.8059 29.3528C49.8925 29.4894 50.0039 29.7996 50.0411 30.0355C50.0782 30.2713 50.1772 30.8298 50.2515 31.2766C50.3257 31.711 50.4371 32.133 50.499 32.195C50.5733 32.2695 50.6228 33.4734 50.6228 35.1862C50.6228 36.8989 50.5733 38.1028 50.499 38.1773C50.4371 38.2394 50.3257 38.6613 50.2515 39.0957C50.1772 39.5426 50.0782 40.1011 50.0411 40.3369C50.0039 40.5727 49.8925 40.883 49.8059 41.0195C49.7069 41.156 49.6326 41.367 49.6326 41.4787C49.6326 41.6028 49.5831 41.8014 49.5212 41.9255C49.4717 42.0372 49.3356 42.3351 49.2365 42.5709C48.8528 43.4645 48.0731 45.0035 47.8132 45.4007C47.6523 45.6241 47.5285 45.8475 47.5285 45.9096C47.5285 45.9592 47.3676 46.1578 47.1572 46.3564C46.9591 46.555 46.7859 46.7908 46.7859 46.8901C46.7859 47.3369 42.6642 51.1099 41.7112 51.5443C41.6122 51.594 41.3646 51.7429 41.1542 51.8794C40.4611 52.3262 38.8397 53.1206 38.6169 53.1206C38.4931 53.1206 38.3322 53.195 38.258 53.2943C38.1837 53.3936 37.9609 53.4929 37.7752 53.5301C36.7479 53.7411 36.3766 53.8404 36.2405 53.9645C36.1538 54.0266 35.8073 54.1135 35.4607 54.1631C35.1265 54.2004 34.421 54.2872 33.9136 54.3493C32.911 54.4858 30.943 54.523 30.943 54.4238C30.943 54.3865 31.1534 54.1755 31.401 53.9521C31.6609 53.7287 32.4902 52.9716 33.2576 52.2766C34.322 51.2961 34.6562 51.0479 34.6562 51.234C34.6562 51.5567 35.2503 52.0408 35.5102 51.9291C35.6216 51.8794 35.9187 51.805 36.1786 51.7553C36.4385 51.7057 36.7232 51.594 36.7974 51.5195C36.8717 51.445 37.0326 51.383 37.1564 51.383C37.2802 51.383 37.4782 51.3333 37.602 51.2713C37.7134 51.2092 38.1961 50.9858 38.6664 50.7624C40.5849 49.8812 42.5405 48.4415 43.6544 47.1259C44.1 46.5922 44.0876 46.5053 43.4069 45.6986L43.0603 45.289L43.4564 44.7677C43.6792 44.4823 43.902 44.1968 43.9515 44.1472C43.9886 44.0851 44.2114 44.2961 44.4342 44.6064C44.6693 44.9167 44.9293 45.1773 45.0407 45.1773C45.2758 45.1773 46.0432 44.445 46.0432 44.2092C46.0432 44.1099 46.1422 43.8865 46.266 43.7128C46.3898 43.5266 46.6126 43.1294 46.7735 42.8316C47.021 42.3351 47.0334 42.2731 46.8477 42C46.6868 41.7518 46.5507 41.7021 46.0308 41.7021C45.6843 41.7021 45.4244 41.6525 45.4491 41.6028C45.4739 41.5532 45.5976 41.2181 45.7214 40.8582C45.9566 40.2376 46.2784 40.0142 46.4764 40.3369C46.6002 40.5355 47.4295 40.4858 47.677 40.25C47.8008 40.1383 47.8998 39.9521 47.8998 39.8404C47.8998 39.7163 47.9864 39.4557 48.0855 39.2695C48.1845 39.0709 48.2711 38.6613 48.2711 38.3511C48.2711 38.0284 48.333 37.7181 48.3949 37.656C48.5682 37.4823 48.5805 32.9025 48.3949 32.7163C48.333 32.6543 48.2711 32.344 48.2711 32.0461C48.2711 31.7482 48.1969 31.3262 48.0978 31.1152C48.0112 30.8918 47.8874 30.5443 47.8255 30.3457C47.7018 29.9734 47.7018 29.9734 46.8106 29.9734H45.9194L45.7214 29.477C45.61 29.2039 45.4986 28.9184 45.4615 28.844C45.4367 28.7571 45.6348 28.6826 46.0061 28.633C46.4022 28.5957 46.6621 28.484 46.8106 28.2979C47.0086 28.0496 47.0086 28.0124 46.7611 27.516C46.2536 26.5355 45.4367 25.3316 45.1768 25.195C44.8921 25.0461 44.558 25.2074 44.558 25.4929C44.5456 25.5674 44.4218 25.7784 44.2733 25.9645L43.9886 26.3121L43.5306 25.7039L43.0851 25.0833L43.5059 24.4504C43.7411 24.0904 43.9391 23.7429 43.9391 23.6684C43.9391 23.594 43.6049 23.1844 43.1965 22.7748L42.4662 22.0301L42.8004 21.5213C42.986 21.2358 43.2336 20.8262 43.345 20.6028L43.5678 20.2181L43.902 20.4663C44.1 20.6028 44.7312 21.1986 45.313 21.8067Z" fill="black"/>
</g>
<defs>
<clipPath id="clip0_22_142">
<rect width="63" height="70" fill="white"/>
</clipPath>
</defs>
</svg>
